<svg viewBox="0,0,460.8,190" width="548.5714285714286" xmlns="http://www.w3.org/2000/svg" xmlns:xlink="http://www.w3.org/1999/xlink"><line x1="40.625" x2="26.875" y1="26.875" y2="26.875" style="stroke: rgb(85, 85, 85);"/><line x1="40.625" x2="26.875" y1="40.625" y2="40.625" style="stroke: rgb(85, 85, 85);"/><line x1="54.375" x2="40.625" y1="26.875" y2="26.875" style="stroke: rgb(85, 85, 85);"/><line x1="54.375" x2="40.625" y1="40.625" y2="40.625" style="stroke: rgb(85, 85, 85);"/><line x1="68.125" x2="54.375" y1="26.875" y2="26.875" style="stroke: rgb(85, 85, 85);"/><line x1="68.125" x2="54.375" y1="40.625" y2="40.625" style="stroke: rgb(85, 85, 85);"/><line x1="81.875" x2="68.125" y1="26.875" y2="26.875" style="stroke: rgb(85, 85, 85);"/><line x1="81.875" x2="68.125" y1="40.625" y2="40.625" style="stroke: rgb(85, 85, 85);"/><line x1="95.625" x2="81.875" y1="26.875" y2="26.875" style="stroke: rgb(85, 85, 85);"/><line x1="95.625" x2="81.875" y1="40.625" y2="40.625" style="stroke: rgb(85, 85, 85);"/><line x1="109.375" x2="95.625" y1="26.875" y2="26.875" style="stroke: rgb(85, 85, 85);"/><line x1="109.375" x2="95.625" y1="40.625" y2="40.625" style="stroke: rgb(85, 85, 85);"/><line x1="123.125" x2="109.375" y1="26.875" y2="26.875" style="stroke: rgb(85, 85, 85);"/><line x1="123.125" x2="109.375" y1="40.625" y2="40.625" style="stroke: rgb(85, 85, 85);"/><line x1="136.875" x2="123.125" y1="26.875" y2="26.875" style="stroke: rgb(85, 85, 85);"/><line x1="136.875" x2="123.125" y1="40.625" y2="40.625" style="stroke: rgb(85, 85, 85);"/><line x1="150.625" x2="136.875" y1="26.875" y2="26.875" style="stroke: rgb(85, 85, 85);"/><line x1="150.625" x2="136.875" y1="40.625" y2="40.625" style="stroke: rgb(85, 85, 85);"/><line x1="164.375" x2="150.625" y1="26.875" y2="26.875" style="stroke: rgb(85, 85, 85);"/><line x1="164.375" x2="150.625" y1="40.625" y2="40.625" style="stroke: rgb(85, 85, 85);"/><line x1="178.125" x2="164.375" y1="26.875" y2="26.875" style="stroke: rgb(85, 85, 85);"/><line x1="178.125" x2="164.375" y1="40.625" y2="40.625" style="stroke: rgb(85, 85, 85);"/><line x1="191.87500000000003" x2="178.125" y1="26.875" y2="26.875" style="stroke: rgb(85, 85, 85);"/><line x1="191.87500000000003" x2="178.125" y1="40.625" y2="40.625" style="stroke: rgb(85, 85, 85);"/><line x1="205.625" x2="191.87500000000003" y1="26.875" y2="26.875" style="stroke: rgb(85, 85, 85);"/><line x1="205.625" x2="191.87500000000003" y1="40.625" y2="40.625" style="stroke: rgb(85, 85, 85);"/><line x1="219.37499999999997" x2="205.625" y1="26.875" y2="26.875" style="stroke: rgb(85, 85, 85);"/><line x1="219.37499999999997" x2="205.625" y1="40.625" y2="40.625" style="stroke: rgb(85, 85, 85);"/><line x1="233.12500000000003" x2="219.37499999999997" y1="26.875" y2="26.875" style="stroke: rgb(85, 85, 85);"/><line x1="233.12500000000003" x2="219.37499999999997" y1="40.625" y2="40.625" style="stroke: rgb(85, 85, 85);"/><line x1="246.875" x2="233.12500000000003" y1="26.875" y2="26.875" style="stroke: rgb(85, 85, 85);"/><line x1="246.875" x2="233.12500000000003" y1="40.625" y2="40.625" style="stroke: rgb(85, 85, 85);"/><line x1="260.625" x2="246.875" y1="26.875" y2="26.875" style="stroke: rgb(85, 85, 85);"/><line x1="260.625" x2="246.875" y1="40.625" y2="40.625" style="stroke: rgb(85, 85, 85);"/><line x1="274.375" x2="260.625" y1="26.875" y2="26.875" style="stroke: rgb(85, 85, 85);"/><line x1="274.375" x2="260.625" y1="40.625" y2="40.625" style="stroke: rgb(85, 85, 85);"/><line x1="288.125" x2="274.375" y1="26.875" y2="26.875" style="stroke: rgb(85, 85, 85);"/><line x1="288.125" x2="274.375" y1="40.625" y2="40.625" style="stroke: rgb(85, 85, 85);"/><line x1="301.875" x2="288.125" y1="26.875" y2="26.875" style="stroke: rgb(85, 85, 85);"/><line x1="301.875" x2="288.125" y1="40.625" y2="40.625" style="stroke: rgb(85, 85, 85);"/><line x1="315.625" x2="301.875" y1="26.875" y2="26.875" style="stroke: rgb(85, 85, 85);"/><line x1="315.625" x2="301.875" y1="40.625" y2="40.625" style="stroke: rgb(85, 85, 85);"/><line x1="329.375" x2="315.625" y1="26.875" y2="26.875" style="stroke: rgb(85, 85, 85);"/><line x1="329.375" x2="315.625" y1="40.625" y2="40.625" style="stroke: rgb(85, 85, 85);"/><line x1="343.125" x2="329.375" y1="26.875" y2="26.875" style="stroke: rgb(85, 85, 85);"/><line x1="343.125" x2="329.375" y1="40.625" y2="40.625" style="stroke: rgb(85, 85, 85);"/><line x1="26.875" x2="26.875" y1="40.625" y2="26.875" style="stroke: rgb(85, 85, 85);"/><line x1="40.625" x2="40.625" y1="40.625" y2="26.875" style="stroke: rgb(85, 85, 85);"/><line x1="54.375" x2="54.375" y1="40.625" y2="26.875" style="stroke: rgb(85, 85, 85);"/><line x1="68.125" x2="68.125" y1="40.625" y2="26.875" style="stroke: rgb(85, 85, 85);"/><line x1="81.875" x2="81.875" y1="40.625" y2="26.875" style="stroke: rgb(85, 85, 85);"/><line x1="95.625" x2="95.625" y1="40.625" y2="26.875" style="stroke: rgb(85, 85, 85);"/><line x1="109.375" x2="109.375" y1="40.625" y2="26.875" style="stroke: rgb(85, 85, 85);"/><line x1="123.125" x2="123.125" y1="40.625" y2="26.875" style="stroke: rgb(85, 85, 85);"/><line x1="136.875" x2="136.875" y1="40.625" y2="26.875" style="stroke: rgb(85, 85, 85);"/><line x1="150.625" x2="150.625" y1="40.625" y2="26.875" style="stroke: rgb(85, 85, 85);"/><line x1="164.375" x2="164.375" y1="40.625" y2="26.875" style="stroke: rgb(85, 85, 85);"/><line x1="178.125" x2="178.125" y1="40.625" y2="26.875" style="stroke: rgb(85, 85, 85);"/><line x1="191.87500000000003" x2="191.87500000000003" y1="40.625" y2="26.875" style="stroke: rgb(85, 85, 85);"/><line x1="205.625" x2="205.625" y1="40.625" y2="26.875" style="stroke: rgb(85, 85, 85);"/><line x1="219.37499999999997" x2="219.37499999999997" y1="40.625" y2="26.875" style="stroke: rgb(85, 85, 85);"/><line x1="233.12500000000003" x2="233.12500000000003" y1="40.625" y2="26.875" style="stroke: rgb(85, 85, 85);"/><line x1="246.875" x2="246.875" y1="40.625" y2="26.875" style="stroke: rgb(85, 85, 85);"/><line x1="260.625" x2="260.625" y1="40.625" y2="26.875" style="stroke: rgb(85, 85, 85);"/><line x1="274.375" x2="274.375" y1="40.625" y2="26.875" style="stroke: rgb(85, 85, 85);"/><line x1="288.125" x2="288.125" y1="40.625" y2="26.875" style="stroke: rgb(85, 85, 85);"/><line x1="301.875" x2="301.875" y1="40.625" y2="26.875" style="stroke: rgb(85, 85, 85);"/><line x1="315.625" x2="315.625" y1="40.625" y2="26.875" style="stroke: rgb(85, 85, 85);"/><line x1="329.375" x2="329.375" y1="40.625" y2="26.875" style="stroke: rgb(85, 85, 85);"/><line x1="343.125" x2="343.125" y1="40.625" y2="26.875" style="stroke: rgb(85, 85, 85);"/><circle cx="26.875" cy="26.875" r="2.5" style="stroke: black; fill: white;"/><circle cx="26.875" cy="40.625" r="2.5" style="stroke: black; fill: white;"/><circle cx="40.625" cy="26.875" r="2.5" style="stroke: black; fill: white;"/><circle cx="40.625" cy="40.625" r="2.5" style="stroke: black; fill: white;"/><circle cx="54.375" cy="26.875" r="2.5" style="stroke: black; fill: white;"/><circle cx="54.375" cy="40.625" r="2.5" style="stroke: black; fill: white;"/><circle cx="68.125" cy="26.875" r="2.5" style="stroke: black; fill: white;"/><circle cx="68.125" cy="40.625" r="2.5" style="stroke: black; fill: white;"/><circle cx="81.875" cy="26.875" r="2.5" style="stroke: black; fill: white;"/><circle cx="81.875" cy="40.625" r="2.5" style="stroke: black; fill: white;"/><circle cx="95.625" cy="26.875" r="2.5" style="stroke: black; fill: white;"/><circle cx="95.625" cy="40.625" r="2.5" style="stroke: black; fill: white;"/><circle cx="109.375" cy="26.875" r="2.5" style="stroke: black; fill: white;"/><circle cx="109.375" cy="40.625" r="2.5" style="stroke: black; fill: white;"/><circle cx="123.125" cy="26.875" r="2.5" style="stroke: black; fill: white;"/><circle cx="123.125" cy="40.625" r="2.5" style="stroke: black; fill: white;"/><circle cx="136.875" cy="26.875" r="2.5" style="stroke: black; fill: white;"/><circle cx="136.875" cy="40.625" r="2.5" style="stroke: black; fill: white;"/><circle cx="150.625" cy="26.875" r="2.5" style="stroke: black; fill: white;"/><circle cx="150.625" cy="40.625" r="2.5" style="stroke: black; fill: white;"/><circle cx="164.375" cy="26.875" r="2.5" style="stroke: black; fill: white;"/><circle cx="164.375" cy="40.625" r="2.5" style="stroke: black; fill: white;"/><circle cx="178.125" cy="26.875" r="2.5" style="stroke: black; fill: white;"/><circle cx="178.125" cy="40.625" r="2.5" style="stroke: black; fill: white;"/><circle cx="191.87500000000003" cy="26.875" r="2.5" style="stroke: black; fill: white;"/><circle cx="191.87500000000003" cy="40.625" r="2.5" style="stroke: black; fill: white;"/><circle cx="205.625" cy="26.875" r="2.5" style="stroke: black; fill: white;"/><circle cx="205.625" cy="40.625" r="2.5" style="stroke: black; fill: white;"/><circle cx="219.37499999999997" cy="26.875" r="2.5" style="stroke: black; fill: white;"/><circle cx="219.37499999999997" cy="40.625" r="2.5" style="stroke: black; fill: white;"/><circle cx="233.12500000000003" cy="26.875" r="2.5" style="stroke: black; fill: white;"/><circle cx="233.12500000000003" cy="40.625" r="2.5" style="stroke: black; fill: white;"/><circle cx="246.875" cy="26.875" r="2.5" style="stroke: black; fill: white;"/><circle cx="246.875" cy="40.625" r="2.5" style="stroke: black; fill: white;"/><circle cx="260.625" cy="26.875" r="2.5" style="stroke: black; fill: white;"/><circle cx="260.625" cy="40.625" r="2.5" style="stroke: black; fill: white;"/><circle cx="274.375" cy="26.875" r="2.5" style="stroke: black; fill: white;"/><circle cx="274.375" cy="40.625" r="2.5" style="stroke: black; fill: white;"/><circle cx="288.125" cy="26.875" r="2.5" style="stroke: black; fill: white;"/><circle cx="288.125" cy="40.625" r="2.5" style="stroke: black; fill: white;"/><circle cx="301.875" cy="26.875" r="2.5" style="stroke: black; fill: white;"/><circle cx="301.875" cy="40.625" r="2.5" style="stroke: black; fill: white;"/><circle cx="315.625" cy="26.875" r="2.5" style="stroke: black; fill: white;"/><circle cx="315.625" cy="40.625" r="2.5" style="stroke: black; fill: white;"/><circle cx="329.375" cy="26.875" r="2.5" style="stroke: black; fill: white;"/><circle cx="329.375" cy="40.625" r="2.5" style="stroke: black; fill: white;"/><circle cx="343.125" cy="26.875" r="2.5" style="stroke: black; fill: white;"/><circle cx="343.125" cy="40.625" r="2.5" style="stroke: black; fill: white;"/></svg>