<?xml version="1.0" encoding="UTF-8" standalone="no"?>
<svg
   viewBox="0 0 294.00001 350"
   width="350"
   version="1.1"
   id="svg2751"
   sodipodi:docname="p2-p24.svg"
   height="350"
   inkscape:version="1.1.2 (0a00cf5, 2022-02-04)"
   xmlns:inkscape="http://www.inkscape.org/namespaces/inkscape"
   xmlns:sodipodi="http://sodipodi.sourceforge.net/DTD/sodipodi-0.dtd"
   xmlns="http://www.w3.org/2000/svg"
   xmlns:svg="http://www.w3.org/2000/svg">
  <defs
     id="defs2755" />
  <sodipodi:namedview
     id="namedview2753"
     pagecolor="#ffffff"
     bordercolor="#666666"
     borderopacity="1.0"
     inkscape:pageshadow="2"
     inkscape:pageopacity="0.0"
     inkscape:pagecheckerboard="0"
     showgrid="false"
     inkscape:zoom="1.509057"
     inkscape:cx="61.959222"
     inkscape:cy="71.236539"
     inkscape:window-width="2560"
     inkscape:window-height="1376"
     inkscape:window-x="0"
     inkscape:window-y="27"
     inkscape:window-maximized="1"
     inkscape:current-layer="svg2751" />
  <line
     x1="3.1229699"
     x2="-10.62703"
     y1="140.45433"
     y2="140.45433"
     style="stroke:#555555"
     id="line2515" />
  <line
     x1="3.1229699"
     x2="-10.62703"
     y1="154.20433"
     y2="154.20433"
     style="stroke:#555555"
     id="line2517" />
  <line
     x1="16.872971"
     x2="3.1229699"
     y1="140.45433"
     y2="140.45433"
     style="stroke:#555555"
     id="line2519" />
  <line
     x1="16.872971"
     x2="3.1229699"
     y1="154.20433"
     y2="154.20433"
     style="stroke:#555555"
     id="line2521" />
  <line
     x1="30.622971"
     x2="16.872971"
     y1="140.45433"
     y2="140.45433"
     style="stroke:#555555"
     id="line2523" />
  <line
     x1="30.622971"
     x2="16.872971"
     y1="154.20433"
     y2="154.20433"
     style="stroke:#555555"
     id="line2525" />
  <line
     x1="44.372971"
     x2="30.622971"
     y1="140.45433"
     y2="140.45433"
     style="stroke:#555555"
     id="line2527" />
  <line
     x1="44.372971"
     x2="30.622971"
     y1="154.20433"
     y2="154.20433"
     style="stroke:#555555"
     id="line2529" />
  <line
     x1="58.122971"
     x2="44.372971"
     y1="140.45433"
     y2="140.45433"
     style="stroke:#555555"
     id="line2531" />
  <line
     x1="58.122971"
     x2="44.372971"
     y1="154.20433"
     y2="154.20433"
     style="stroke:#555555"
     id="line2533" />
  <line
     x1="71.872971"
     x2="58.122971"
     y1="140.45433"
     y2="140.45433"
     style="stroke:#555555"
     id="line2535" />
  <line
     x1="71.872971"
     x2="58.122971"
     y1="154.20433"
     y2="154.20433"
     style="stroke:#555555"
     id="line2537" />
  <line
     x1="85.622971"
     x2="71.872971"
     y1="140.45433"
     y2="140.45433"
     style="stroke:#555555"
     id="line2539" />
  <line
     x1="85.622971"
     x2="71.872971"
     y1="154.20433"
     y2="154.20433"
     style="stroke:#555555"
     id="line2541" />
  <line
     x1="99.372971"
     x2="85.622971"
     y1="140.45433"
     y2="140.45433"
     style="stroke:#555555"
     id="line2543" />
  <line
     x1="99.372971"
     x2="85.622971"
     y1="154.20433"
     y2="154.20433"
     style="stroke:#555555"
     id="line2545" />
  <line
     x1="113.12297"
     x2="99.372971"
     y1="140.45433"
     y2="140.45433"
     style="stroke:#555555"
     id="line2547" />
  <line
     x1="113.12297"
     x2="99.372971"
     y1="154.20433"
     y2="154.20433"
     style="stroke:#555555"
     id="line2549" />
  <line
     x1="126.87297"
     x2="113.12297"
     y1="140.45433"
     y2="140.45433"
     style="stroke:#555555"
     id="line2551" />
  <line
     x1="126.87297"
     x2="113.12297"
     y1="154.20433"
     y2="154.20433"
     style="stroke:#555555"
     id="line2553" />
  <line
     x1="140.62297"
     x2="126.87297"
     y1="140.45433"
     y2="140.45433"
     style="stroke:#555555"
     id="line2555" />
  <line
     x1="140.62297"
     x2="126.87297"
     y1="154.20433"
     y2="154.20433"
     style="stroke:#555555"
     id="line2557" />
  <line
     x1="154.37297"
     x2="140.62297"
     y1="140.45433"
     y2="140.45433"
     style="stroke:#555555"
     id="line2559" />
  <line
     x1="154.37297"
     x2="140.62297"
     y1="154.20433"
     y2="154.20433"
     style="stroke:#555555"
     id="line2561" />
  <line
     x1="168.12297"
     x2="154.37297"
     y1="140.45433"
     y2="140.45433"
     style="stroke:#555555"
     id="line2563" />
  <line
     x1="168.12297"
     x2="154.37297"
     y1="154.20433"
     y2="154.20433"
     style="stroke:#555555"
     id="line2565" />
  <line
     x1="181.87297"
     x2="168.12297"
     y1="140.45433"
     y2="140.45433"
     style="stroke:#555555"
     id="line2567" />
  <line
     x1="181.87297"
     x2="168.12297"
     y1="154.20433"
     y2="154.20433"
     style="stroke:#555555"
     id="line2569" />
  <line
     x1="195.62297"
     x2="181.87297"
     y1="140.45433"
     y2="140.45433"
     style="stroke:#555555"
     id="line2571" />
  <line
     x1="195.62297"
     x2="181.87297"
     y1="154.20433"
     y2="154.20433"
     style="stroke:#555555"
     id="line2573" />
  <line
     x1="209.37297"
     x2="195.62297"
     y1="140.45433"
     y2="140.45433"
     style="stroke:#555555"
     id="line2575" />
  <line
     x1="209.37297"
     x2="195.62297"
     y1="154.20433"
     y2="154.20433"
     style="stroke:#555555"
     id="line2577" />
  <line
     x1="223.12297"
     x2="209.37297"
     y1="140.45433"
     y2="140.45433"
     style="stroke:#555555"
     id="line2579" />
  <line
     x1="223.12297"
     x2="209.37297"
     y1="154.20433"
     y2="154.20433"
     style="stroke:#555555"
     id="line2581" />
  <line
     x1="236.87297"
     x2="223.12297"
     y1="140.45433"
     y2="140.45433"
     style="stroke:#555555"
     id="line2583" />
  <line
     x1="236.87297"
     x2="223.12297"
     y1="154.20433"
     y2="154.20433"
     style="stroke:#555555"
     id="line2585" />
  <line
     x1="250.62297"
     x2="236.87297"
     y1="140.45433"
     y2="140.45433"
     style="stroke:#555555"
     id="line2587" />
  <line
     x1="250.62297"
     x2="236.87297"
     y1="154.20433"
     y2="154.20433"
     style="stroke:#555555"
     id="line2589" />
  <line
     x1="264.37296"
     x2="250.62297"
     y1="140.45433"
     y2="140.45433"
     style="stroke:#555555"
     id="line2591" />
  <line
     x1="264.37296"
     x2="250.62297"
     y1="154.20433"
     y2="154.20433"
     style="stroke:#555555"
     id="line2593" />
  <line
     x1="278.12296"
     x2="264.37296"
     y1="140.45433"
     y2="140.45433"
     style="stroke:#555555"
     id="line2595" />
  <line
     x1="278.12296"
     x2="264.37296"
     y1="154.20433"
     y2="154.20433"
     style="stroke:#555555"
     id="line2597" />
  <line
     x1="291.87296"
     x2="278.12296"
     y1="140.45433"
     y2="140.45433"
     style="stroke:#555555"
     id="line2599" />
  <line
     x1="291.87296"
     x2="278.12296"
     y1="154.20433"
     y2="154.20433"
     style="stroke:#555555"
     id="line2601" />
  <line
     x1="305.62296"
     x2="291.87296"
     y1="140.45433"
     y2="140.45433"
     style="stroke:#555555"
     id="line2603" />
  <line
     x1="305.62296"
     x2="291.87296"
     y1="154.20433"
     y2="154.20433"
     style="stroke:#555555"
     id="line2605" />
  <line
     x1="-10.62703"
     x2="-10.62703"
     y1="154.20433"
     y2="140.45433"
     style="stroke:#555555"
     id="line2607" />
  <line
     x1="3.1229699"
     x2="3.1229699"
     y1="154.20433"
     y2="140.45433"
     style="stroke:#555555"
     id="line2609" />
  <line
     x1="16.872971"
     x2="16.872971"
     y1="154.20433"
     y2="140.45433"
     style="stroke:#555555"
     id="line2611" />
  <line
     x1="30.622971"
     x2="30.622971"
     y1="154.20433"
     y2="140.45433"
     style="stroke:#555555"
     id="line2613" />
  <line
     x1="44.372971"
     x2="44.372971"
     y1="154.20433"
     y2="140.45433"
     style="stroke:#555555"
     id="line2615" />
  <line
     x1="58.122971"
     x2="58.122971"
     y1="154.20433"
     y2="140.45433"
     style="stroke:#555555"
     id="line2617" />
  <line
     x1="71.872971"
     x2="71.872971"
     y1="154.20433"
     y2="140.45433"
     style="stroke:#555555"
     id="line2619" />
  <line
     x1="85.622971"
     x2="85.622971"
     y1="154.20433"
     y2="140.45433"
     style="stroke:#555555"
     id="line2621" />
  <line
     x1="99.372971"
     x2="99.372971"
     y1="154.20433"
     y2="140.45433"
     style="stroke:#555555"
     id="line2623" />
  <line
     x1="113.12297"
     x2="113.12297"
     y1="154.20433"
     y2="140.45433"
     style="stroke:#555555"
     id="line2625" />
  <line
     x1="126.87297"
     x2="126.87297"
     y1="154.20433"
     y2="140.45433"
     style="stroke:#555555"
     id="line2627" />
  <line
     x1="140.62297"
     x2="140.62297"
     y1="154.20433"
     y2="140.45433"
     style="stroke:#555555"
     id="line2629" />
  <line
     x1="154.37297"
     x2="154.37297"
     y1="154.20433"
     y2="140.45433"
     style="stroke:#555555"
     id="line2631" />
  <line
     x1="168.12297"
     x2="168.12297"
     y1="154.20433"
     y2="140.45433"
     style="stroke:#555555"
     id="line2633" />
  <line
     x1="181.87297"
     x2="181.87297"
     y1="154.20433"
     y2="140.45433"
     style="stroke:#555555"
     id="line2635" />
  <line
     x1="195.62297"
     x2="195.62297"
     y1="154.20433"
     y2="140.45433"
     style="stroke:#555555"
     id="line2637" />
  <line
     x1="209.37297"
     x2="209.37297"
     y1="154.20433"
     y2="140.45433"
     style="stroke:#555555"
     id="line2639" />
  <line
     x1="223.12297"
     x2="223.12297"
     y1="154.20433"
     y2="140.45433"
     style="stroke:#555555"
     id="line2641" />
  <line
     x1="236.87297"
     x2="236.87297"
     y1="154.20433"
     y2="140.45433"
     style="stroke:#555555"
     id="line2643" />
  <line
     x1="250.62297"
     x2="250.62297"
     y1="154.20433"
     y2="140.45433"
     style="stroke:#555555"
     id="line2645" />
  <line
     x1="264.37296"
     x2="264.37296"
     y1="154.20433"
     y2="140.45433"
     style="stroke:#555555"
     id="line2647" />
  <line
     x1="278.12296"
     x2="278.12296"
     y1="154.20433"
     y2="140.45433"
     style="stroke:#555555"
     id="line2649" />
  <line
     x1="291.87296"
     x2="291.87296"
     y1="154.20433"
     y2="140.45433"
     style="stroke:#555555"
     id="line2651" />
  <line
     x1="305.62296"
     x2="305.62296"
     y1="154.20433"
     y2="140.45433"
     style="stroke:#555555"
     id="line2653" />
  <circle
     cx="-10.62703"
     cy="140.45433"
     r="2.5"
     style="fill:#ffffff;stroke:#000000"
     id="circle2655" />
  <circle
     cx="-10.62703"
     cy="154.20433"
     r="2.5"
     style="fill:#ffffff;stroke:#000000"
     id="circle2657" />
  <circle
     cx="3.1229699"
     cy="140.45433"
     r="2.5"
     style="fill:#ffffff;stroke:#000000"
     id="circle2659" />
  <circle
     cx="3.1229699"
     cy="154.20433"
     r="2.5"
     style="fill:#ffffff;stroke:#000000"
     id="circle2661" />
  <circle
     cx="16.872971"
     cy="140.45433"
     r="2.5"
     style="fill:#ffffff;stroke:#000000"
     id="circle2663" />
  <circle
     cx="16.872971"
     cy="154.20433"
     r="2.5"
     style="fill:#ffffff;stroke:#000000"
     id="circle2665" />
  <circle
     cx="30.622971"
     cy="140.45433"
     r="2.5"
     style="fill:#ffffff;stroke:#000000"
     id="circle2667" />
  <circle
     cx="30.622971"
     cy="154.20433"
     r="2.5"
     style="fill:#ffffff;stroke:#000000"
     id="circle2669" />
  <circle
     cx="44.372971"
     cy="140.45433"
     r="2.5"
     style="fill:#ffffff;stroke:#000000"
     id="circle2671" />
  <circle
     cx="44.372971"
     cy="154.20433"
     r="2.5"
     style="fill:#ffffff;stroke:#000000"
     id="circle2673" />
  <circle
     cx="58.122971"
     cy="140.45433"
     r="2.5"
     style="fill:#ffffff;stroke:#000000"
     id="circle2675" />
  <circle
     cx="58.122971"
     cy="154.20433"
     r="2.5"
     style="fill:#ffffff;stroke:#000000"
     id="circle2677" />
  <circle
     cx="71.872971"
     cy="140.45433"
     r="2.5"
     style="fill:#ffffff;stroke:#000000"
     id="circle2679" />
  <circle
     cx="71.872971"
     cy="154.20433"
     r="2.5"
     style="fill:#ffffff;stroke:#000000"
     id="circle2681" />
  <circle
     cx="85.622971"
     cy="140.45433"
     r="2.5"
     style="fill:#ffffff;stroke:#000000"
     id="circle2683" />
  <circle
     cx="85.622971"
     cy="154.20433"
     r="2.5"
     style="fill:#ffffff;stroke:#000000"
     id="circle2685" />
  <circle
     cx="99.372971"
     cy="140.45433"
     r="2.5"
     style="fill:#ffffff;stroke:#000000"
     id="circle2687" />
  <circle
     cx="99.372971"
     cy="154.20433"
     r="2.5"
     style="fill:#ffffff;stroke:#000000"
     id="circle2689" />
  <circle
     cx="113.12297"
     cy="140.45433"
     r="2.5"
     style="fill:#ffffff;stroke:#000000"
     id="circle2691" />
  <circle
     cx="113.12297"
     cy="154.20433"
     r="2.5"
     style="fill:#ffffff;stroke:#000000"
     id="circle2693" />
  <circle
     cx="126.87297"
     cy="140.45433"
     r="2.5"
     style="fill:#ffffff;stroke:#000000"
     id="circle2695" />
  <circle
     cx="126.87297"
     cy="154.20433"
     r="2.5"
     style="fill:#ffffff;stroke:#000000"
     id="circle2697" />
  <circle
     cx="140.62297"
     cy="140.45433"
     r="2.5"
     style="fill:#ffffff;stroke:#000000"
     id="circle2699" />
  <circle
     cx="140.62297"
     cy="154.20433"
     r="2.5"
     style="fill:#ffffff;stroke:#000000"
     id="circle2701" />
  <circle
     cx="154.37297"
     cy="140.45433"
     r="2.5"
     style="fill:#ffffff;stroke:#000000"
     id="circle2703" />
  <circle
     cx="154.37297"
     cy="154.20433"
     r="2.5"
     style="fill:#ffffff;stroke:#000000"
     id="circle2705" />
  <circle
     cx="168.12297"
     cy="140.45433"
     r="2.5"
     style="fill:#ffffff;stroke:#000000"
     id="circle2707" />
  <circle
     cx="168.12297"
     cy="154.20433"
     r="2.5"
     style="fill:#ffffff;stroke:#000000"
     id="circle2709" />
  <circle
     cx="181.87297"
     cy="140.45433"
     r="2.5"
     style="fill:#ffffff;stroke:#000000"
     id="circle2711" />
  <circle
     cx="181.87297"
     cy="154.20433"
     r="2.5"
     style="fill:#ffffff;stroke:#000000"
     id="circle2713" />
  <circle
     cx="195.62297"
     cy="140.45433"
     r="2.5"
     style="fill:#ffffff;stroke:#000000"
     id="circle2715" />
  <circle
     cx="195.62297"
     cy="154.20433"
     r="2.5"
     style="fill:#ffffff;stroke:#000000"
     id="circle2717" />
  <circle
     cx="209.37297"
     cy="140.45433"
     r="2.5"
     style="fill:#ffffff;stroke:#000000"
     id="circle2719" />
  <circle
     cx="209.37297"
     cy="154.20433"
     r="2.5"
     style="fill:#ffffff;stroke:#000000"
     id="circle2721" />
  <circle
     cx="223.12297"
     cy="140.45433"
     r="2.5"
     style="fill:#ffffff;stroke:#000000"
     id="circle2723" />
  <circle
     cx="223.12297"
     cy="154.20433"
     r="2.5"
     style="fill:#ffffff;stroke:#000000"
     id="circle2725" />
  <circle
     cx="236.87297"
     cy="140.45433"
     r="2.5"
     style="fill:#ffffff;stroke:#000000"
     id="circle2727" />
  <circle
     cx="236.87297"
     cy="154.20433"
     r="2.5"
     style="fill:#ffffff;stroke:#000000"
     id="circle2729" />
  <circle
     cx="250.62297"
     cy="140.45433"
     r="2.5"
     style="fill:#ffffff;stroke:#000000"
     id="circle2731" />
  <circle
     cx="250.62297"
     cy="154.20433"
     r="2.5"
     style="fill:#ffffff;stroke:#000000"
     id="circle2733" />
  <circle
     cx="264.37296"
     cy="140.45433"
     r="2.5"
     style="fill:#ffffff;stroke:#000000"
     id="circle2735" />
  <circle
     cx="264.37296"
     cy="154.20433"
     r="2.5"
     style="fill:#ffffff;stroke:#000000"
     id="circle2737" />
  <circle
     cx="278.12296"
     cy="140.45433"
     r="2.5"
     style="fill:#ffffff;stroke:#000000"
     id="circle2739" />
  <circle
     cx="278.12296"
     cy="154.20433"
     r="2.5"
     style="fill:#ffffff;stroke:#000000"
     id="circle2741" />
  <circle
     cx="291.87296"
     cy="140.45433"
     r="2.5"
     style="fill:#ffffff;stroke:#000000"
     id="circle2743" />
  <circle
     cx="291.87296"
     cy="154.20433"
     r="2.5"
     style="fill:#ffffff;stroke:#000000"
     id="circle2745" />
  <circle
     cx="305.62296"
     cy="140.45433"
     r="2.5"
     style="fill:#ffffff;stroke:#000000"
     id="circle2747" />
  <circle
     cx="305.62296"
     cy="154.20433"
     r="2.5"
     style="fill:#ffffff;stroke:#000000"
     id="circle2749" />
</svg>
