<?xml version="1.0" encoding="UTF-8" standalone="no"?>
<svg
   viewBox="0 0 294.00001 100"
   width="350"
   version="1.1"
   id="svg2751"
   sodipodi:docname="p2-p24.svg"
   height="100"
   inkscape:version="1.1.2 (0a00cf5, 2022-02-04)"
   xmlns:inkscape="http://www.inkscape.org/namespaces/inkscape"
   xmlns:sodipodi="http://sodipodi.sourceforge.net/DTD/sodipodi-0.dtd"
   xmlns="http://www.w3.org/2000/svg"
   xmlns:svg="http://www.w3.org/2000/svg">
  <defs
     id="defs2755" />
  <sodipodi:namedview
     id="namedview2753"
     pagecolor="#ffffff"
     bordercolor="#666666"
     borderopacity="1.0"
     inkscape:pageshadow="2"
     inkscape:pageopacity="0.0"
     inkscape:pagecheckerboard="0"
     showgrid="false"
     inkscape:zoom="0.63234634"
     inkscape:cx="65.628592"
     inkscape:cy="71.954239"
     inkscape:window-width="2560"
     inkscape:window-height="1376"
     inkscape:window-x="0"
     inkscape:window-y="27"
     inkscape:window-maximized="1"
     inkscape:current-layer="svg2751" />
  <line
     x1="2.625"
     x2="-11.125"
     y1="38.875"
     y2="38.875"
     style="stroke:#555555"
     id="line2515" />
  <line
     x1="2.625"
     x2="-11.125"
     y1="52.625"
     y2="52.625"
     style="stroke:#555555"
     id="line2517" />
  <line
     x1="16.375"
     x2="2.625"
     y1="38.875"
     y2="38.875"
     style="stroke:#555555"
     id="line2519" />
  <line
     x1="16.375"
     x2="2.625"
     y1="52.625"
     y2="52.625"
     style="stroke:#555555"
     id="line2521" />
  <line
     x1="30.125"
     x2="16.375"
     y1="38.875"
     y2="38.875"
     style="stroke:#555555"
     id="line2523" />
  <line
     x1="30.125"
     x2="16.375"
     y1="52.625"
     y2="52.625"
     style="stroke:#555555"
     id="line2525" />
  <line
     x1="43.875"
     x2="30.125"
     y1="38.875"
     y2="38.875"
     style="stroke:#555555"
     id="line2527" />
  <line
     x1="43.875"
     x2="30.125"
     y1="52.625"
     y2="52.625"
     style="stroke:#555555"
     id="line2529" />
  <line
     x1="57.625"
     x2="43.875"
     y1="38.875"
     y2="38.875"
     style="stroke:#555555"
     id="line2531" />
  <line
     x1="57.625"
     x2="43.875"
     y1="52.625"
     y2="52.625"
     style="stroke:#555555"
     id="line2533" />
  <line
     x1="71.375"
     x2="57.625"
     y1="38.875"
     y2="38.875"
     style="stroke:#555555"
     id="line2535" />
  <line
     x1="71.375"
     x2="57.625"
     y1="52.625"
     y2="52.625"
     style="stroke:#555555"
     id="line2537" />
  <line
     x1="85.125"
     x2="71.375"
     y1="38.875"
     y2="38.875"
     style="stroke:#555555"
     id="line2539" />
  <line
     x1="85.125"
     x2="71.375"
     y1="52.625"
     y2="52.625"
     style="stroke:#555555"
     id="line2541" />
  <line
     x1="98.875"
     x2="85.125"
     y1="38.875"
     y2="38.875"
     style="stroke:#555555"
     id="line2543" />
  <line
     x1="98.875"
     x2="85.125"
     y1="52.625"
     y2="52.625"
     style="stroke:#555555"
     id="line2545" />
  <line
     x1="112.625"
     x2="98.875"
     y1="38.875"
     y2="38.875"
     style="stroke:#555555"
     id="line2547" />
  <line
     x1="112.625"
     x2="98.875"
     y1="52.625"
     y2="52.625"
     style="stroke:#555555"
     id="line2549" />
  <line
     x1="126.375"
     x2="112.625"
     y1="38.875"
     y2="38.875"
     style="stroke:#555555"
     id="line2551" />
  <line
     x1="126.375"
     x2="112.625"
     y1="52.625"
     y2="52.625"
     style="stroke:#555555"
     id="line2553" />
  <line
     x1="140.125"
     x2="126.375"
     y1="38.875"
     y2="38.875"
     style="stroke:#555555"
     id="line2555" />
  <line
     x1="140.125"
     x2="126.375"
     y1="52.625"
     y2="52.625"
     style="stroke:#555555"
     id="line2557" />
  <line
     x1="153.875"
     x2="140.125"
     y1="38.875"
     y2="38.875"
     style="stroke:#555555"
     id="line2559" />
  <line
     x1="153.875"
     x2="140.125"
     y1="52.625"
     y2="52.625"
     style="stroke:#555555"
     id="line2561" />
  <line
     x1="167.625"
     x2="153.875"
     y1="38.875"
     y2="38.875"
     style="stroke:#555555"
     id="line2563" />
  <line
     x1="167.625"
     x2="153.875"
     y1="52.625"
     y2="52.625"
     style="stroke:#555555"
     id="line2565" />
  <line
     x1="181.375"
     x2="167.625"
     y1="38.875"
     y2="38.875"
     style="stroke:#555555"
     id="line2567" />
  <line
     x1="181.375"
     x2="167.625"
     y1="52.625"
     y2="52.625"
     style="stroke:#555555"
     id="line2569" />
  <line
     x1="195.125"
     x2="181.375"
     y1="38.875"
     y2="38.875"
     style="stroke:#555555"
     id="line2571" />
  <line
     x1="195.125"
     x2="181.375"
     y1="52.625"
     y2="52.625"
     style="stroke:#555555"
     id="line2573" />
  <line
     x1="208.875"
     x2="195.125"
     y1="38.875"
     y2="38.875"
     style="stroke:#555555"
     id="line2575" />
  <line
     x1="208.875"
     x2="195.125"
     y1="52.625"
     y2="52.625"
     style="stroke:#555555"
     id="line2577" />
  <line
     x1="222.625"
     x2="208.875"
     y1="38.875"
     y2="38.875"
     style="stroke:#555555"
     id="line2579" />
  <line
     x1="222.625"
     x2="208.875"
     y1="52.625"
     y2="52.625"
     style="stroke:#555555"
     id="line2581" />
  <line
     x1="236.375"
     x2="222.625"
     y1="38.875"
     y2="38.875"
     style="stroke:#555555"
     id="line2583" />
  <line
     x1="236.375"
     x2="222.625"
     y1="52.625"
     y2="52.625"
     style="stroke:#555555"
     id="line2585" />
  <line
     x1="250.125"
     x2="236.375"
     y1="38.875"
     y2="38.875"
     style="stroke:#555555"
     id="line2587" />
  <line
     x1="250.125"
     x2="236.375"
     y1="52.625"
     y2="52.625"
     style="stroke:#555555"
     id="line2589" />
  <line
     x1="263.875"
     x2="250.125"
     y1="38.875"
     y2="38.875"
     style="stroke:#555555"
     id="line2591" />
  <line
     x1="263.875"
     x2="250.125"
     y1="52.625"
     y2="52.625"
     style="stroke:#555555"
     id="line2593" />
  <line
     x1="277.625"
     x2="263.875"
     y1="38.875"
     y2="38.875"
     style="stroke:#555555"
     id="line2595" />
  <line
     x1="277.625"
     x2="263.875"
     y1="52.625"
     y2="52.625"
     style="stroke:#555555"
     id="line2597" />
  <line
     x1="291.375"
     x2="277.625"
     y1="38.875"
     y2="38.875"
     style="stroke:#555555"
     id="line2599" />
  <line
     x1="291.375"
     x2="277.625"
     y1="52.625"
     y2="52.625"
     style="stroke:#555555"
     id="line2601" />
  <line
     x1="305.125"
     x2="291.375"
     y1="38.875"
     y2="38.875"
     style="stroke:#555555"
     id="line2603" />
  <line
     x1="305.125"
     x2="291.375"
     y1="52.625"
     y2="52.625"
     style="stroke:#555555"
     id="line2605" />
  <line
     x1="-11.125"
     x2="-11.125"
     y1="52.625"
     y2="38.875"
     style="stroke:#555555"
     id="line2607" />
  <line
     x1="2.625"
     x2="2.625"
     y1="52.625"
     y2="38.875"
     style="stroke:#555555"
     id="line2609" />
  <line
     x1="16.375"
     x2="16.375"
     y1="52.625"
     y2="38.875"
     style="stroke:#555555"
     id="line2611" />
  <line
     x1="30.125"
     x2="30.125"
     y1="52.625"
     y2="38.875"
     style="stroke:#555555"
     id="line2613" />
  <line
     x1="43.875"
     x2="43.875"
     y1="52.625"
     y2="38.875"
     style="stroke:#555555"
     id="line2615" />
  <line
     x1="57.625"
     x2="57.625"
     y1="52.625"
     y2="38.875"
     style="stroke:#555555"
     id="line2617" />
  <line
     x1="71.375"
     x2="71.375"
     y1="52.625"
     y2="38.875"
     style="stroke:#555555"
     id="line2619" />
  <line
     x1="85.125"
     x2="85.125"
     y1="52.625"
     y2="38.875"
     style="stroke:#555555"
     id="line2621" />
  <line
     x1="98.875"
     x2="98.875"
     y1="52.625"
     y2="38.875"
     style="stroke:#555555"
     id="line2623" />
  <line
     x1="112.625"
     x2="112.625"
     y1="52.625"
     y2="38.875"
     style="stroke:#555555"
     id="line2625" />
  <line
     x1="126.375"
     x2="126.375"
     y1="52.625"
     y2="38.875"
     style="stroke:#555555"
     id="line2627" />
  <line
     x1="140.125"
     x2="140.125"
     y1="52.625"
     y2="38.875"
     style="stroke:#555555"
     id="line2629" />
  <line
     x1="153.875"
     x2="153.875"
     y1="52.625"
     y2="38.875"
     style="stroke:#555555"
     id="line2631" />
  <line
     x1="167.625"
     x2="167.625"
     y1="52.625"
     y2="38.875"
     style="stroke:#555555"
     id="line2633" />
  <line
     x1="181.375"
     x2="181.375"
     y1="52.625"
     y2="38.875"
     style="stroke:#555555"
     id="line2635" />
  <line
     x1="195.125"
     x2="195.125"
     y1="52.625"
     y2="38.875"
     style="stroke:#555555"
     id="line2637" />
  <line
     x1="208.875"
     x2="208.875"
     y1="52.625"
     y2="38.875"
     style="stroke:#555555"
     id="line2639" />
  <line
     x1="222.625"
     x2="222.625"
     y1="52.625"
     y2="38.875"
     style="stroke:#555555"
     id="line2641" />
  <line
     x1="236.375"
     x2="236.375"
     y1="52.625"
     y2="38.875"
     style="stroke:#555555"
     id="line2643" />
  <line
     x1="250.125"
     x2="250.125"
     y1="52.625"
     y2="38.875"
     style="stroke:#555555"
     id="line2645" />
  <line
     x1="263.875"
     x2="263.875"
     y1="52.625"
     y2="38.875"
     style="stroke:#555555"
     id="line2647" />
  <line
     x1="277.625"
     x2="277.625"
     y1="52.625"
     y2="38.875"
     style="stroke:#555555"
     id="line2649" />
  <line
     x1="291.375"
     x2="291.375"
     y1="52.625"
     y2="38.875"
     style="stroke:#555555"
     id="line2651" />
  <line
     x1="305.125"
     x2="305.125"
     y1="52.625"
     y2="38.875"
     style="stroke:#555555"
     id="line2653" />
  <circle
     cx="-11.125"
     cy="38.875"
     r="2.5"
     style="fill:#ffffff;stroke:#000000"
     id="circle2655" />
  <circle
     cx="-11.125"
     cy="52.625"
     r="2.5"
     style="fill:#ffffff;stroke:#000000"
     id="circle2657" />
  <circle
     cx="2.625"
     cy="38.875"
     r="2.5"
     style="fill:#ffffff;stroke:#000000"
     id="circle2659" />
  <circle
     cx="2.625"
     cy="52.625"
     r="2.5"
     style="fill:#ffffff;stroke:#000000"
     id="circle2661" />
  <circle
     cx="16.375"
     cy="38.875"
     r="2.5"
     style="fill:#ffffff;stroke:#000000"
     id="circle2663" />
  <circle
     cx="16.375"
     cy="52.625"
     r="2.5"
     style="fill:#ffffff;stroke:#000000"
     id="circle2665" />
  <circle
     cx="30.125"
     cy="38.875"
     r="2.5"
     style="fill:#ffffff;stroke:#000000"
     id="circle2667" />
  <circle
     cx="30.125"
     cy="52.625"
     r="2.5"
     style="fill:#ffffff;stroke:#000000"
     id="circle2669" />
  <circle
     cx="43.875"
     cy="38.875"
     r="2.5"
     style="fill:#ffffff;stroke:#000000"
     id="circle2671" />
  <circle
     cx="43.875"
     cy="52.625"
     r="2.5"
     style="fill:#ffffff;stroke:#000000"
     id="circle2673" />
  <circle
     cx="57.625"
     cy="38.875"
     r="2.5"
     style="fill:#ffffff;stroke:#000000"
     id="circle2675" />
  <circle
     cx="57.625"
     cy="52.625"
     r="2.5"
     style="fill:#ffffff;stroke:#000000"
     id="circle2677" />
  <circle
     cx="71.375"
     cy="38.875"
     r="2.5"
     style="fill:#ffffff;stroke:#000000"
     id="circle2679" />
  <circle
     cx="71.375"
     cy="52.625"
     r="2.5"
     style="fill:#ffffff;stroke:#000000"
     id="circle2681" />
  <circle
     cx="85.125"
     cy="38.875"
     r="2.5"
     style="fill:#ffffff;stroke:#000000"
     id="circle2683" />
  <circle
     cx="85.125"
     cy="52.625"
     r="2.5"
     style="fill:#ffffff;stroke:#000000"
     id="circle2685" />
  <circle
     cx="98.875"
     cy="38.875"
     r="2.5"
     style="fill:#ffffff;stroke:#000000"
     id="circle2687" />
  <circle
     cx="98.875"
     cy="52.625"
     r="2.5"
     style="fill:#ffffff;stroke:#000000"
     id="circle2689" />
  <circle
     cx="112.625"
     cy="38.875"
     r="2.5"
     style="fill:#ffffff;stroke:#000000"
     id="circle2691" />
  <circle
     cx="112.625"
     cy="52.625"
     r="2.5"
     style="fill:#ffffff;stroke:#000000"
     id="circle2693" />
  <circle
     cx="126.375"
     cy="38.875"
     r="2.5"
     style="fill:#ffffff;stroke:#000000"
     id="circle2695" />
  <circle
     cx="126.375"
     cy="52.625"
     r="2.5"
     style="fill:#ffffff;stroke:#000000"
     id="circle2697" />
  <circle
     cx="140.125"
     cy="38.875"
     r="2.5"
     style="fill:#ffffff;stroke:#000000"
     id="circle2699" />
  <circle
     cx="140.125"
     cy="52.625"
     r="2.5"
     style="fill:#ffffff;stroke:#000000"
     id="circle2701" />
  <circle
     cx="153.875"
     cy="38.875"
     r="2.5"
     style="fill:#ffffff;stroke:#000000"
     id="circle2703" />
  <circle
     cx="153.875"
     cy="52.625"
     r="2.5"
     style="fill:#ffffff;stroke:#000000"
     id="circle2705" />
  <circle
     cx="167.625"
     cy="38.875"
     r="2.5"
     style="fill:#ffffff;stroke:#000000"
     id="circle2707" />
  <circle
     cx="167.625"
     cy="52.625"
     r="2.5"
     style="fill:#ffffff;stroke:#000000"
     id="circle2709" />
  <circle
     cx="181.375"
     cy="38.875"
     r="2.5"
     style="fill:#ffffff;stroke:#000000"
     id="circle2711" />
  <circle
     cx="181.375"
     cy="52.625"
     r="2.5"
     style="fill:#ffffff;stroke:#000000"
     id="circle2713" />
  <circle
     cx="195.125"
     cy="38.875"
     r="2.5"
     style="fill:#ffffff;stroke:#000000"
     id="circle2715" />
  <circle
     cx="195.125"
     cy="52.625"
     r="2.5"
     style="fill:#ffffff;stroke:#000000"
     id="circle2717" />
  <circle
     cx="208.875"
     cy="38.875"
     r="2.5"
     style="fill:#ffffff;stroke:#000000"
     id="circle2719" />
  <circle
     cx="208.875"
     cy="52.625"
     r="2.5"
     style="fill:#ffffff;stroke:#000000"
     id="circle2721" />
  <circle
     cx="222.625"
     cy="38.875"
     r="2.5"
     style="fill:#ffffff;stroke:#000000"
     id="circle2723" />
  <circle
     cx="222.625"
     cy="52.625"
     r="2.5"
     style="fill:#ffffff;stroke:#000000"
     id="circle2725" />
  <circle
     cx="236.375"
     cy="38.875"
     r="2.5"
     style="fill:#ffffff;stroke:#000000"
     id="circle2727" />
  <circle
     cx="236.375"
     cy="52.625"
     r="2.5"
     style="fill:#ffffff;stroke:#000000"
     id="circle2729" />
  <circle
     cx="250.125"
     cy="38.875"
     r="2.5"
     style="fill:#ffffff;stroke:#000000"
     id="circle2731" />
  <circle
     cx="250.125"
     cy="52.625"
     r="2.5"
     style="fill:#ffffff;stroke:#000000"
     id="circle2733" />
  <circle
     cx="263.875"
     cy="38.875"
     r="2.5"
     style="fill:#ffffff;stroke:#000000"
     id="circle2735" />
  <circle
     cx="263.875"
     cy="52.625"
     r="2.5"
     style="fill:#ffffff;stroke:#000000"
     id="circle2737" />
  <circle
     cx="277.625"
     cy="38.875"
     r="2.5"
     style="fill:#ffffff;stroke:#000000"
     id="circle2739" />
  <circle
     cx="277.625"
     cy="52.625"
     r="2.5"
     style="fill:#ffffff;stroke:#000000"
     id="circle2741" />
  <circle
     cx="291.375"
     cy="38.875"
     r="2.5"
     style="fill:#ffffff;stroke:#000000"
     id="circle2743" />
  <circle
     cx="291.375"
     cy="52.625"
     r="2.5"
     style="fill:#ffffff;stroke:#000000"
     id="circle2745" />
  <circle
     cx="305.125"
     cy="38.875"
     r="2.5"
     style="fill:#ffffff;stroke:#000000"
     id="circle2747" />
  <circle
     cx="305.125"
     cy="52.625"
     r="2.5"
     style="fill:#ffffff;stroke:#000000"
     id="circle2749" />
</svg>
